<svg xmlns="http://www.w3.org/2000/svg" xmlns:xlink="http://www.w3.org/1999/xlink" xml:space="preserve" width="17920" height="17920" version="1.1" style="shape-rendering:geometricPrecision; text-rendering:geometricPrecision; image-rendering:optimizeQuality; fill-rule:evenodd; clip-rule:evenodd"><rect id="backgroundrect" width="100%" height="100%" x="0" y="0" fill="none" stroke="none"/>
 <defs>
  <style type="text/css">
   <![CDATA[
    .fil0 {fill:none}
    .fil5 {fill:#B2B3B3}
    .fil4 {fill:#727271}
    .fil1 {fill:#434242}
    .fil2 {fill:whitesmoke}
    .fil7 {fill:#FEFEFE;fill-rule:nonzero}
    .fil6 {fill:#FAFAFA;fill-rule:nonzero}
    .fil3 {fill:#FF8A00;fill-rule:nonzero}
   ]]>
  </style>
 </defs>
 
<g class="currentLayer" style=""><title>Layer 1</title><g id="Слой_x0020_1" class="">
  <metadata id="CorelCorpID_0Corel-Layer" transform="translate(0,-20) translate(0,-20) translate(0,-20) translate(0,20) translate(0,20) translate(0,-20) translate(0,-20) translate(0,-20) translate(0,-20) translate(0,-20) translate(0,-20) translate(0,-20) translate(0,-20) translate(0,-20) translate(0,-20) translate(0,-20) translate(0,-20) translate(0,-20) translate(0,-20) translate(0,-20) translate(0,-20) translate(0,-20) translate(0,-20) translate(0,-20) translate(0,-20) translate(0,-20) translate(0,-20) translate(0,-20) translate(0,-20) translate(0,-20) translate(0,-20) translate(0,-20) translate(0,-20) translate(0,-20) translate(0,-20) translate(0,-20) translate(0,-20) translate(0,-20) translate(0,-20) translate(0,-20) translate(0,-20) translate(0,-20) translate(0,-20) translate(0,-20) translate(0,-20) translate(0,-20) translate(0,-20) translate(0,-20) translate(0,-20) translate(0,-20) translate(0,-20) translate(0,-20) translate(0,-20) translate(0,-20) translate(0,-20) translate(0,-20) translate(0,-20) translate(0,-20) translate(0,-20) translate(0,-20) translate(0,-20) translate(0,-20) translate(0,-20) translate(0,-20) translate(0,-20) translate(0,-20) translate(0,-20) translate(0,-20) translate(0,-20) translate(0,-20) translate(0,-20) translate(0,-20) translate(0,-20) translate(0,-20) translate(0,-20) translate(0,-20) translate(0,-20) translate(0,-20) translate(0,-20) translate(0,-20) translate(0,-20) translate(0,-20) translate(0,-20) translate(0,-20) translate(0,-20) translate(0,-20) translate(0,-20) translate(0,-20) translate(0,-20) translate(0,-20) translate(0,-20) translate(0,-20) translate(0,-20) translate(0,-20) translate(0,-20) translate(0,-20) translate(0,-20) translate(0,-20) translate(0,-20) translate(0,-20) translate(0,-20) translate(0,-20) translate(0,-20) translate(0,-20) translate(0,-20) translate(0,-20) translate(0,-20) translate(0,-20) translate(0,-20) translate(0,-20) translate(0,-20) translate(0,-20) translate(0,-20) translate(0,-20) translate(0,-20) translate(0,-20) translate(0,-20) translate(0,-20) translate(0,-20) translate(0,-20) translate(0,-20) translate(0,-20) translate(0,-20) translate(0,-20) translate(0,-20) translate(0,-20) translate(0,-20) translate(0,-20) translate(0,-20) translate(0,-20) translate(0,-20) translate(0,-20) translate(0,-20) translate(0,-20) translate(0,-20) translate(0,-20) translate(0,-20) translate(0,-20) translate(0,-20) translate(0,-20) translate(0,-20) translate(0,-20) translate(0,-20) translate(0,-20) translate(0,-20) translate(0,-20) translate(0,-20) translate(0,-20) translate(0,-20) translate(0,-20) translate(0,-20) translate(0,-20) translate(0,-20) translate(0,-20) translate(0,-20) translate(0,-20) translate(0,-20) translate(0,-20) translate(0,-20) translate(0,-20) translate(0,-20) translate(0,-20) translate(0,-20) translate(0,-20) translate(0,-20) translate(0,-20) translate(0,-20) translate(0,-20) translate(0,-20) translate(0,-20) translate(0,-20) translate(0,-20) translate(0,-20) translate(0,-20) translate(0,-20) translate(0,-20) translate(0,-20) translate(0,-20) translate(0,-20) translate(0,-20) translate(0,-20) translate(0,-20) translate(0,-20) translate(0,-20) translate(0,-20) translate(0,-20) translate(0,-20) translate(0,-20) translate(0,-20) translate(0,-20) translate(0,-20) translate(0,-20) translate(0,-20) translate(0,-20) translate(0,-20) translate(0,-20) translate(0,-20) translate(0,-20) translate(0,-20) translate(0,-20) translate(0,-20) translate(0,-20) translate(0,-20) translate(0,-20) translate(0,-20) translate(0,-20) translate(0,-20) translate(0,-20) translate(0,-20) translate(0,-20) translate(0,-20) translate(0,-20) translate(0,-20) translate(0,-20) translate(0,-20) translate(0,-20) translate(0,-20) translate(0,-20) translate(0,-20) translate(0,-20) translate(0,-20) translate(0,-20) translate(0,-20) translate(0,-20) translate(0,-20) translate(0,-20) translate(0,-20) translate(0,-20) translate(0,-20) translate(0,-20) translate(0,-20) translate(0,-20) translate(0,-20) translate(0,-20) translate(0,-20) translate(0,-20) translate(0,-20) translate(0,-20) translate(0,-20) translate(0,-20) translate(0,-20) translate(0,-20) translate(0,-20) translate(0,-20) translate(0,-20) translate(0,-20) translate(0,-20) translate(0,-20) translate(0,-20) translate(0,-20) translate(0,-20) translate(0,-20) translate(0,-20) translate(0,-20) translate(0,-20) translate(0,-20) translate(0,-20) translate(0,-20) translate(0,-20) translate(0,-20) translate(0,-20) translate(0,-20) translate(0,-20) translate(0,-20) translate(0,-20) translate(0,-20) translate(0,-20) translate(0,-20) translate(0,-20) translate(0,-20) translate(0,-20) translate(0,-20) translate(0,-20) translate(0,-20) translate(0,-20) translate(0,-20) translate(0,-20) translate(0,-20) translate(0,-20) translate(0,-20) translate(0,-20) translate(0,-20) translate(0,-20) translate(0,-20) translate(0,-20) translate(0,-20) translate(0,-20) translate(0,-20) translate(0,-20) translate(0,-20) translate(0,-20) translate(0,-20) translate(0,-20) translate(0,-20) translate(0,-20) translate(0,-20) translate(0,-20) translate(0,-20) translate(0,-20) translate(0.0035285099875181913,5920) translate(0,-20) translate(0,-20) translate(0,-20) translate(0,-20) translate(0,-20) translate(0,-20) translate(0,-20) translate(0,-20) translate(0,-20) translate(0,-20) translate(0,-20) translate(0,-20) translate(0,-20) translate(0,-20) translate(0,-20) translate(0,-20) translate(0,-20) translate(0,-20) translate(0,-20) translate(0,-20) translate(0,-20) translate(0,-20) translate(0,-20) translate(0,-20) translate(0,-20) translate(0,-20) translate(0,-20) translate(0,-20) translate(0,-20) translate(0,-20) translate(0,-20) translate(0,-20) translate(0,-20) translate(0,-20) translate(0,-20) translate(0,-20) translate(0,-20) translate(0,-20) translate(0,-20) translate(0,-20) translate(0,-20) translate(0,-20) translate(0,-20) translate(0,-20) translate(0,-20) translate(0,-20) translate(0,-20) translate(0,-20) translate(0,-20) translate(0,-20) translate(0,-20) translate(0,-20) translate(0,-20) translate(0,-20) translate(0,-20) translate(0,-20) translate(0,-20) translate(0,-20) translate(0,-20) translate(0,-20) translate(0,-20) translate(0,-20) translate(0,-20) translate(0,-20) translate(0,-20) translate(0,-20) translate(0,-20) translate(0,-20) translate(0,-20) translate(0,-20) translate(0,-20) translate(0,-20) translate(0,-20) translate(0,-20) translate(0,-20) translate(0,-20) translate(0,-20) translate(0,-20) translate(0,-20) translate(0,-20) translate(0,-20) translate(0,-20) translate(0,-20) translate(0,-20) translate(0,-20) translate(0,-20) translate(0,-20) translate(0,-20) translate(0,-20) translate(0,-20) translate(0,-20) translate(0,-20) translate(0,-20) translate(0,-20) translate(0,-20) translate(0,-20) translate(0,-20) translate(0,-20) translate(0,-20) translate(0,-20) translate(0,-20) translate(0,-20) translate(0,-20) translate(0,-20) translate(0,-20) translate(0,-20) translate(0,-20) translate(0,-20) translate(0,-20) translate(0,-20) translate(0,-20) translate(0,-20) translate(0,-20) translate(0,-20) translate(0,-20) translate(0,-20) translate(0,-20) translate(0,-20) translate(0,-20) translate(0,-20) translate(0,-20) translate(0,-20) translate(0,-20) translate(0,-20) translate(0,-20) translate(0,-20) translate(0,-20) translate(0,-20) translate(0,-20) translate(0,-20) translate(0,-20) translate(0,-20) translate(0,-20) translate(0,-20) translate(0,-20) translate(0,-20) translate(0,-20) translate(0,-20) translate(0,-20) translate(0,-20) translate(0,-20) translate(0,-20) translate(0,-20) translate(0,-20) translate(0,-20) translate(0,-20) translate(0,-20) translate(0,-20) translate(0,-20) translate(0,-20) translate(0,-20) translate(0,-20) translate(0,-20) translate(0,-20) translate(0,-20) translate(0,-20) translate(0,-20) translate(0,-20) translate(0,-20) translate(0,-20) translate(0,-20) translate(0,-20) translate(0,-20) translate(0,-20) translate(0,-20) translate(0,-20) translate(0,-20) translate(0,-20) translate(0,-20) translate(0,-20) translate(0,-20) translate(0,-20) translate(0,-20) translate(0,-20) translate(0,-20) translate(0,-20) translate(0,-20) translate(0,-20) translate(0,-20) translate(0,-20) translate(0,-20) translate(0,-20) translate(0,-20) translate(0,-20) translate(0,-20) translate(0,-20) translate(0,-20) translate(0,-20) translate(0,-20) translate(0,-20) translate(0,-20) translate(0,-20) translate(0,-20) translate(0,-20) translate(0,-20) translate(0,-20) translate(0,-20) translate(0,-20) translate(0,-20) translate(0,-20) translate(0,-20) translate(0,-20) translate(0,-20) translate(0,-20) translate(0,-20) translate(0,-20) translate(0,-20) translate(0,-20) translate(0,-20) translate(0,-20) translate(0,-20) translate(0,-20) translate(0,-20) translate(0,-20) translate(0,-20) translate(0,-20) translate(0,-20) translate(0,-20) translate(0,-20) translate(0,-20) translate(0,-20) translate(0,-20) translate(0,-20) translate(0,-20) translate(0,-20) translate(0,-20) translate(0,-20) translate(0,-20) translate(0,-20) translate(0,-20) translate(0,-20) translate(0,-20) translate(0,-20) translate(0,-20) translate(0,-20) translate(0,-20) translate(0,-20) translate(0,-20) translate(0,-20) translate(0,-20) translate(0,-20) translate(0,-20) translate(0,-20) translate(0,-20) translate(0,-20) translate(0,-20) translate(0,-20) translate(0,-20) translate(0,-20) translate(0,-20) translate(0,-20) translate(0,-20) translate(0,-20) translate(0,-20) translate(0,-20) translate(0,-20) translate(0,-20) translate(0,-20) translate(0,-20) translate(0,-20) translate(0,-20) translate(0,-20) translate(0,-20) translate(0,-20) translate(0,-20) translate(0,-20) translate(0,-20) translate(0,-20) translate(0,-20) translate(0,-20) translate(0,-20) translate(0,-20) translate(0,-20) translate(0,-20) translate(0,-20) translate(0,-20) translate(0,-20) translate(0,-20) translate(0,-20) translate(0,-20) translate(0,-20) translate(0,-20) translate(0,-20) translate(0,-20) translate(0,-20) translate(0,-20) translate(0,-20) translate(0,-20) translate(0,-20) translate(0,-20) translate(0,-20) translate(0,-20) translate(0,-20) translate(0,-20) translate(0,-20) translate(0,-20) "/>
  <g id="_2326559400000">
   <rect class="fil0" width="17920" height="23750" id="svg_1" y="-5900" x="0.0035285099875181913"/>
   <g id="svg_2">
    <g id="svg_3">
     <circle class="fil1" cx="8960.003528509988" cy="16500" r="1350" id="svg_4"/>
     <path class="fil2" d="M8960.003528509988,16115 c2374,-84 1679,-2338 3525,-4582 c6,-6 13,-12 19,-19 c25,-25 49,-50 73,-75 l9,-9 c22,-23 43,-46 65,-70 c6,-6 12,-13 17,-19 c24,-26 47,-52 70,-78 c4,-5 7,-9 11,-13 c20,-24 40,-47 60,-71 c5,-7 10,-13 16,-19 c22,-27 44,-55 66,-82 c3,-5 7,-9 10,-14 c19,-24 38,-48 56,-73 c5,-7 11,-14 16,-20 c20,-28 41,-56 61,-85 c4,-5 8,-10 12,-16 c17,-25 34,-49 51,-74 c5,-7 10,-14 14,-21 c20,-29 39,-58 58,-88 c4,-5 7,-11 11,-17 c16,-26 32,-51 48,-77 c4,-7 8,-14 12,-20 c19,-30 36,-60 54,-91 c4,-6 7,-13 11,-19 c15,-26 29,-52 44,-79 c4,-7 8,-14 11,-21 c17,-30 33,-61 49,-93 c4,-6 7,-13 11,-20 c13,-27 27,-54 40,-81 c3,-7 7,-14 10,-21 c15,-32 30,-63 45,-95 c3,-8 6,-15 10,-22 c12,-28 24,-56 36,-85 c3,-6 6,-12 8,-18 c14,-33 28,-66 41,-99 l9,-23 c11,-29 22,-58 33,-87 c2,-6 4,-12 6,-18 c13,-33 25,-67 36,-101 c3,-8 5,-16 8,-24 c10,-29 20,-59 29,-89 c2,-6 4,-12 6,-18 c10,-34 20,-68 30,-103 c3,-8 5,-17 7,-25 c9,-30 17,-61 25,-92 c2,-5 3,-11 5,-17 c9,-35 17,-70 25,-105 c2,-8 4,-17 6,-25 c7,-32 14,-64 21,-96 c1,-5 2,-10 3,-15 c7,-35 14,-71 21,-107 c1,-9 3,-18 4,-27 c6,-33 12,-66 17,-100 l2,-11 c5,-36 10,-73 15,-109 l4,-28 c4,-35 8,-69 11,-104 l1,-8 c4,-37 7,-75 10,-112 l2,-28 c3,-36 5,-73 7,-110 l1,-3 c1,-38 3,-76 4,-114 l1,-28 c0,-38 1,-76 1,-115 c0,-2761 -2239,-5000 -5000,-5000 c-2761,0 -5000,2239 -5000,5000 c0,39 1,77 1,115 l1,28 c1,38 3,76 4,114 l1,3 c2,37 4,74 7,110 l2,28 c3,37 6,75 10,112 l1,8 c3,35 7,69 11,104 l4,28 c5,36 10,73 15,109 l2,11 c5,34 11,67 17,100 c1,9 3,18 4,27 c7,36 14,72 21,107 c1,5 2,10 3,15 c7,32 14,64 21,96 c2,8 4,17 6,25 c8,35 16,70 25,105 c2,6 3,12 5,17 c8,31 16,62 25,92 c2,8 4,17 7,25 c10,35 20,69 30,103 c2,6 4,12 6,18 c9,30 19,60 29,89 c3,8 5,16 8,24 c11,34 23,68 36,101 c2,6 4,12 6,18 c11,29 22,58 33,87 l9,23 c13,33 27,66 41,99 c2,6 5,12 8,18 c12,29 24,57 36,85 c4,7 7,14 10,22 c15,32 30,63 45,95 c3,7 7,14 10,21 c13,27 27,54 40,81 c4,7 7,14 11,20 c16,32 32,63 49,93 c3,7 7,14 11,21 c15,27 29,53 44,79 c4,6 7,13 11,19 c18,31 35,61 54,91 c4,6 8,13 12,20 c16,26 32,51 48,77 c4,6 7,12 11,17 c19,30 38,59 58,88 c4,7 9,14 14,21 c17,25 34,49 51,74 c4,6 8,11 12,16 c20,29 41,57 61,85 c5,6 11,13 16,20 c18,25 37,49 56,73 c3,5 7,9 10,14 c22,27 44,55 66,82 c6,6 11,12 16,19 c20,24 40,47 60,71 c4,4 7,8 11,13 c23,26 46,52 70,78 c5,6 11,13 17,19 c22,24 43,47 65,70 l9,9 c24,25 49,50 73,75 c6,7 13,13 19,19 c1846,2244 1151,4498 3525,4582 z" id="svg_5"/>
     <path class="fil3" d="M7663.0035285099875,8885 c81,67 162,134 246,196 c95,71 194,136 302,191 c106,54 221,98 329,88 c107,-10 210,-74 296,-234 c33,-63 64,-141 92,-228 l-11,-9 l13,-15 l-14,14 c-148,-144 -295,-288 -382,-562 c-46,-147 -75,-331 -72,-499 c3,-147 30,-283 90,-373 c30,-45 68,-78 110,-99 c47,-22 98,-29 149,-18 c51,12 100,41 144,91 c49,56 90,139 115,251 c43,191 38,471 1,745 c-22,162 -56,322 -98,461 c81,67 162,134 246,196 c94,71 193,136 301,191 c107,54 221,98 330,88 c107,-10 210,-74 295,-234 c34,-63 66,-142 93,-229 l-10,-7 l11,-16 l-13,14 c-148,-144 -296,-288 -382,-562 c-46,-147 -75,-331 -72,-499 c3,-147 30,-283 89,-373 c30,-45 69,-78 111,-99 c47,-22 98,-29 149,-18 c51,12 100,41 143,91 c50,56 91,139 116,251 c42,191 38,471 1,745 c-22,160 -55,319 -97,457 c232,166 463,324 675,324 c111,0 217,-43 322,-107 c44,-27 87,-57 130,-89 l164,-170 l21,21 l2,-1 l12,15 l35,34 l-1253,1273 l0,6147 l-97,0 l0,-6167 l984,-1016 c-103,60 -209,99 -320,99 c-220,0 -454,-157 -687,-323 c-28,85 -59,161 -92,223 c-93,174 -207,243 -326,255 c-118,11 -240,-35 -351,-92 c-110,-56 -211,-122 -308,-194 c-81,-60 -158,-124 -235,-188 c-27,83 -57,158 -90,219 c-93,174 -207,243 -326,255 c-118,11 -239,-35 -351,-92 c-110,-56 -211,-122 -307,-194 c-82,-60 -159,-124 -235,-188 c-28,83 -58,158 -91,219 c-93,174 -207,243 -326,255 c-118,11 -239,-35 -351,-92 c-69,-35 -135,-75 -199,-117 l941,971 l0,6167 l-97,0 l0,-6147 l-1253,-1273 l35,-34 l12,-15 l2,1 l21,-21 l178,184 c25,20 50,39 76,58 c95,71 194,136 302,191 c106,54 221,98 329,88 c107,-10 210,-74 296,-234 c34,-63 65,-141 92,-228 l-11,-9 l13,-15 l-14,14 c-148,-144 -295,-288 -382,-562 c-46,-147 -74,-331 -71,-499 c2,-147 29,-283 89,-373 c30,-45 68,-78 110,-99 c47,-22 98,-29 149,-18 c51,12 100,41 144,91 c49,56 90,139 115,251 c43,191 38,471 1,745 c-22,162 -56,322 -98,461 zm2587,-28 c40,-133 71,-285 92,-438 c37,-270 41,-545 0,-732 c-24,-105 -62,-182 -107,-233 c-38,-43 -80,-69 -123,-78 c-42,-10 -84,-4 -123,14 c-36,18 -69,47 -95,86 c-55,83 -80,212 -83,352 c-3,164 25,343 70,486 c83,264 226,404 369,543 zm-2619,0 c39,-133 70,-285 91,-438 c37,-270 41,-545 0,-732 c-24,-105 -62,-182 -107,-233 c-37,-43 -80,-69 -122,-78 c-42,-10 -85,-4 -124,14 c-36,18 -69,47 -95,86 c-55,83 -80,212 -82,352 c-3,164 24,343 70,486 c83,264 226,404 369,543 zm1310,0 c39,-133 70,-285 91,-438 c37,-270 41,-545 0,-732 c-24,-105 -62,-182 -107,-233 c-37,-43 -80,-69 -122,-78 c-42,-10 -85,-4 -124,14 c-36,18 -69,47 -95,86 c-55,83 -80,212 -83,352 c-3,164 25,343 70,486 c83,264 226,404 370,543 z" id="svg_6"/>
     <rect class="fil4" x="6547.0035285099875" y="13200" width="4826" height="3300" rx="1000" ry="735" id="svg_7"/>
     <rect class="fil5" x="6460.0035285099875" y="13500" width="5000" height="700" rx="333" ry="301" id="svg_8"/>
     <rect class="fil5" x="6460.0035285099875" y="14500" width="5000" height="700" rx="333" ry="301" id="svg_9"/>
     <rect class="fil5" x="6460.0035285099875" y="15500" width="5000" height="700" rx="333" ry="301" id="svg_10"/>
    </g>
    <rect class="fil2" x="8710.003528509988" y="27" width="500" height="2500" rx="250" ry="129" id="svg_11"/>
    <rect class="fil2" transform="matrix(0.852387,-0.492126,0.356367,0.617246,4263.49,6252.65) " width="508" height="4911" rx="254" ry="254" id="svg_12" y="-7168.938500994322" x="2997.2027204711285"/>
    <rect class="fil2" transform="matrix(0.492126,-0.852387,0.44089,0.254548,1941.23,10123.6) " width="508" height="4911" rx="254" ry="254" id="svg_13" y="-5794.580790590973" x="5191.305180530338"/>
    <rect class="fil2" transform="matrix(-0.492126,-0.852387,0.44089,-0.254548,2191.23,18083.9) " width="508" height="4911" rx="254" ry="254" id="svg_14" y="5794.592795318702" x="5191.301595562603"/>
    <rect class="fil2" transform="matrix(-0.492126,0.852387,-0.44089,-0.254548,15978.8,17650.9) " width="508" height="4911" rx="254" ry="254" id="svg_15" y="5794.580790590975" x="-5191.305180529799"/>
    <rect class="fil2" transform="matrix(0.492126,0.852387,-0.44089,0.254548,15728.8,9690.61) " width="508" height="4911" rx="254" ry="254" id="svg_16" y="-5794.592795318704" x="-5191.301595562607"/>
    <rect class="fil2" transform="matrix(2.60902e-14,-0.984252,0.712734,1.88183e-14,-0.00352851,14137.2) " width="508.00000000006776" height="4911" rx="254" ry="254" id="svg_17" y="0.004950668596030083" x="5994.399808178529"/>
    <rect class="fil2" transform="matrix(0.852387,0.492126,-0.356367,0.617246,13223.5,6002.65) " width="508" height="4911" rx="254" ry="254" id="svg_18" y="-7168.943451663706" x="-2997.1965111256322"/>
    <rect class="fil2" transform="matrix(-7.88813e-14,0.984252,-0.712734,-5.70655e-14,17920,13637.2) " width="508.00000000006776" height="4911" rx="254" ry="254" id="svg_19" y="-0.004950669488607673" x="-5994.399808178531"/>
    <path class="fil6" d="M4967.0035285099875,7744 c61,-1008 494,-1915 1165,-2585 l0,0 l0,0 c670,-671 1577,-1104 2585,-1164 c181,-10 264,69 243,242 c4,202 -50,246 -217,257 c-880,54 -1672,433 -2258,1018 l0,0 l0,0 c-586,586 -965,1378 -1018,2258 c-12,167 -55,221 -257,217 c-173,21 -252,-61 -243,-243 z" id="svg_20"/>
    <g id="svg_21">
     <path class="fil7" d="M4967.0035285099875,7744 l1,-6 l0,0 l-1,6 zm33,-322 l0,-1 l0,1 zm0,-1 l0,0 l0,0 zm0,0 l2,-12 c-1,4 -2,8 -2,12 zm2,-12 l0,-1 l0,1 zm0,-1 l0,0 l0,0 zm0,0 l0,-1 l0,1 zm0,-1 l0,-1 l0,1 zm0,-1 l0,0 l0,0 zm0,0 l0,-2 l0,2 zm0,-2 l0,0 l0,0 zm0,0 l0,0 l0,0 zm0,0 l0,-1 l0,1 zm0,-1 l0,0 l0,0 zm0,0 l1,-1 l-1,1 zm1,-1 l0,0 l0,0 zm0,0 l0,0 l0,0 zm0,0 l0,-1 l0,1 zm0,-1 l0,0 l0,0 zm0,0 l0,0 l0,0 zm0,0 l0,-1 l0,1 zm0,-1 l0,0 l0,0 zm0,0 l0,0 l0,0 zm0,0 l0,-1 l0,1 zm334,-1111 l1,0 l-1,0 zm1,0 l0,-1 l0,1 zm0,-1 l0,0 l0,0 zm0,0 l0,0 l0,0 zm0,0 l0,0 l0,0 zm0,0 l0,-1 l0,1 zm0,-1 l0,0 l0,0 zm0,0 l6,-12 l0,0 l-6,12 zm7,-13 l0,-1 l0,0 l0,-1 l0,0 l1,0 l0,0 l-1,0 l0,2 zm0,0 l-1,0 l1,0 zm119,-231 l0,-1 l0,0 l0,1 zm305,-467 l0,-1 l0,1 zm0,-1 l0,0 l0,0 zm0,0 l0,0 l0,0 zm0,0 l0,0 l0,0 zm0,0 l1,-1 l-1,1 zm1,-1 l0,0 l0,0 zm0,0 l0,0 l0,0 l0,0 zm2,-3 l1,-1 l0,0 l-1,1 zm1,-1 l0,-1 l0,0 l0,1 zm1,-1 l0,-1 l0,0 l0,1 zm1,-2 l0,0 l1,-1 l0,0 l0,0 l0,-1 l0,1 l0,0 l-1,1 zm1,-2 l1,0 l-1,0 zm1,0 l0,0 l0,0 l0,-1 l0,1 l0,0 l0,0 zm0,-1 l1,0 l-1,0 zm1,0 l0,0 l0,-1 l0,0 l0,1 l0,0 l0,0 zm1,-2 l0,0 l0,0 l0,0 l0,0 l0,0 l0,0 l0,0 l0,0 l0,0 zm1,-2 l0,0 l0,0 l0,0 zm15,-20 l1,0 l-1,0 zm1,0 l0,0 l0,0 zm0,0 l0,-1 l0,1 zm0,-1 l1,0 l-1,0 zm1,0 l0,0 l0,0 zm0,0 l0,-1 l0,1 zm0,-1 l0,0 l0,0 zm0,0 l1,0 l-1,0 zm1,0 l0,-1 l0,1 zm0,-1 l0,0 l0,0 zm0,0 l0,0 l0,0 zm0,0 l0,0 l0,0 zm0,0 l1,-1 l-1,1 zm1,-1 l0,0 l0,0 zm0,0 l0,0 l0,0 zm0,0 l0,-1 l0,1 zm0,-1 l1,0 l-1,0 zm1,0 l0,0 l0,-1 l0,0 l0,1 l0,0 l0,0 zm1,-2 l1,-1 l0,0 l0,0 l0,0 l0,0 l0,0 l0,0 l0,0 l-1,1 zm2,-2 l0,-1 l1,0 l0,0 l0,0 l0,0 l0,0 l-1,0 l0,0 l0,1 zm6,-8 l0,0 l0,0 l0,0 zm1,-1 l0,0 l0,0 l0,0 zm14,-18 l0,0 l0,0 zm0,0 l0,0 l0,0 zm0,0 l1,-1 l-1,1 zm1,-1 l0,0 l0,0 zm0,0 l0,0 l0,0 zm0,0 l0,-1 l0,1 zm0,-1 l1,0 l-1,0 zm1,0 l0,-1 l0,1 zm0,-1 l0,0 l0,0 zm0,0 l1,0 l-1,0 zm1,0 l0,0 l0,0 zm0,0 l0,-1 l0,1 zm0,-1 l0,0 l0,0 zm0,0 l0,0 l0,0 zm0,0 l1,-1 l-1,1 zm1,-1 l0,0 l0,0 zm0,0 l0,0 l0,0 zm0,0 l0,0 l0,0 zm0,0 l1,-1 l-1,1 zm1,-1 l0,0 l0,0 zm0,0 l0,0 l0,0 zm0,0 l0,-1 l0,1 zm0,-1 l1,0 l-1,0 zm1,0 l0,0 l0,0 zm0,0 l0,-1 l0,1 zm0,-1 l0,0 l0,0 zm0,0 l0,0 l0,0 zm0,0 l1,0 l-1,0 zm1,0 l0,-1 l0,1 zm0,-1 l0,0 l0,0 zm0,0 l0,0 l0,0 zm0,0 l1,-1 l-1,1 zm1,-1 l0,0 l0,0 zm0,0 l0,0 l0,0 zm0,0 l0,0 l0,0 zm0,0 l5,-6 l-5,6 zm5,-6 l0,0 l0,0 zm0,0 l0,-1 l0,1 zm0,-1 l1,0 l-1,0 zm1,0 l0,0 l0,0 zm0,0 l0,-1 l0,1 zm0,-1 l0,0 l0,0 zm0,0 l0,0 l0,0 zm0,0 l1,0 l-1,0 zm199,-229 l0,0 l0,0 l0,0 zm11,-12 l0,0 l0,0 l0,0 zm1526,-1011 l0,0 l0,0 l1,0 l0,-1 l0,0 l-1,1 zm0,0 l1,0 l-1,0 zm1,0 l0,-1 l0,0 l0,1 zm2,-1 l0,0 l0,0 l1,0 l0,0 l0,-1 l-1,1 zm0,0 l0,0 l0,0 zm1,0 l0,0 l0,0 l0,0 zm1,-1 l1,0 l0,0 l0,0 l0,0 l1,-1 l-1,1 l0,0 l0,0 l0,0 l-1,0 zm1,0 l0,0 l0,0 zm-6,2 l-1,0 l1,0 zm102,-36 l0,0 l0,0 zm0,0 l0,0 l0,0 zm0,0 l1,0 l-1,0 zm1,0 l0,-1 l0,1 zm0,-1 l0,0 l0,0 zm0,0 l0,0 l0,0 zm0,0 l1,0 l-1,0 zm1,0 l0,0 l0,0 zm0,0 l0,0 l0,0 zm0,0 l0,0 l0,0 zm0,0 l1,0 l-1,0 zm1,0 l0,0 l0,0 zm0,0 l0,0 l0,0 zm0,0 l0,0 l0,0 zm0,0 l1,0 l-1,0 zm1,0 l0,-1 l0,1 l0,0 zm0,-1 l1,0 l0,0 l-1,0 zm2,0 l0,0 l0,0 l0,0 zm0,0 l1,0 l0,0 l-1,0 zm1,-1 l0,0 l0,0 l0,0 zm1,0 l0,0 l0,0 l0,0 zm0,0 l1,0 l0,0 l-1,0 zm1,0 l0,0 l0,0 l0,0 zm1,0 l0,0 l0,0 l0,0 zm0,-1 l0,0 l0,0 l0,0 zm1,0 l0,0 l0,0 l0,0 zm0,0 l1,0 l0,0 l-1,0 zm1,0 l0,0 l0,0 l0,0 zm1,0 l0,-1 l0,0 l0,1 zm1,-1 l0,0 l0,0 l0,0 zm0,0 l1,0 l0,0 l-1,0 zm1,0 l1,0 l0,0 l-1,0 zm166,-52 l1,0 l-1,0 l0,0 zm22,-6 l0,0 l0,0 l0,0 zm212,-53 l0,0 l0,0 zm1,0 l1,0 l-1,0 zm17,-4 l1,0 l-1,0 l0,0 zm1,0 l0,0 l0,0 zm0,0 l0,0 l0,0 zm0,0 l1,0 l-1,0 zm1,0 l0,0 l0,0 zm578,-82 l0,0 l1,0 l0,0 l-1,0 zm1,0 l0,0 l1,0 l0,0 l0,0 l1,0 l0,0 l0,0 l1,0 l0,0 l0,0 l0,0 l1,0 l0,0 l1,0 l1,0 l0,0 l11,-1 l0,0 l1,0 l0,0 l0,0 l1,0 l0,0 l0,0 l1,0 l-1,0 l0,0 l-19,1 zm125,-6 c12,-1 25,-1 38,-1 c-13,0 -26,0 -38,1 zm48,-2 c14,0 29,0 44,0 c-15,0 -30,0 -44,0 zm47,0 c16,-1 33,-1 50,-1 c-17,0 -34,0 -50,1 zm-277,514 l-1,0 l1,0 zm-2,1 l-1,0 l0,0 l1,0 l0,0 zm-1,0 l-1,0 l1,0 zm-1,0 l0,0 l-1,0 l-16,1 l17,-1 zm-476,78 l-1,0 l1,0 zm-1,0 l0,0 l0,0 l-1,0 l0,0 l0,0 l1,0 zm0,0 l-1,0 l0,0 l0,0 l-1,0 l2,0 zm0,0 l1,0 l0,0 l-1,0 zm-448,138 l0,1 l0,-1 zm0,1 l-1,0 l1,0 zm-1,0 l0,0 l0,0 zm0,0 l0,0 l0,0 zm0,0 l-1,0 l1,0 zm-1,0 l-1,0 l1,0 l0,0 zm-1,0 l0,1 l0,-1 zm0,1 l-1,0 l1,0 zm-1,0 l-18,7 l18,-7 l0,0 l0,0 zm-18,7 l0,0 l0,0 zm0,0 l-1,0 l1,0 zm-1,0 l0,0 l0,0 zm0,0 l0,0 l0,0 zm-282,126 l0,0 l0,0 l0,0 zm0,0 l0,0 l0,0 zm0,0 l-1,0 l1,0 zm-1,0 l-12,7 l12,-7 zm-12,7 l-1,0 l1,0 zm-1,0 l0,0 l0,0 zm0,0 l0,0 l-1,0 l0,0 l1,0 zm-1,0 l-1,1 l1,-1 zm-1,1 l0,0 l0,0 zm0,0 l0,0 l0,0 zm0,0 l0,0 l0,0 zm0,0 l-1,0 l1,0 zm-1,0 l0,0 l0,0 zm0,0 l0,1 l0,-1 zm0,1 l-1,0 l1,0 zm-1,0 l0,0 l0,0 zm-95,50 l0,0 l0,0 l0,0 zm-115,65 l0,1 l0,-1 zm0,1 l-1,0 l1,0 zm-1,0 l0,0 l0,0 zm0,0 l0,0 l0,0 zm0,0 l0,0 l0,0 zm0,0 l-1,0 l1,0 zm-1,0 l0,1 l-1,0 l0,0 l-1,1 l-14,8 l16,-10 zm-16,10 l-1,1 l1,-1 zm-1,1 l0,0 l0,0 zm0,0 l0,0 l0,0 zm0,0 l-1,0 l1,0 zm-1,0 l0,0 l0,0 zm-219,144 l-1,1 l1,-1 zm-1,1 l0,0 l0,0 zm0,0 l0,0 l0,0 l0,0 zm-145,109 l0,0 l0,0 l0,0 zm0,0 l0,0 l0,1 l-1,0 l-12,10 l13,-11 zm-13,11 l0,0 l0,0 zm0,0 l-1,0 l1,0 zm-1,0 l0,0 l0,0 zm0,0 l0,1 l0,-1 zm0,1 l-1,0 l1,0 zm-1,0 l0,0 l0,0 zm0,0 l0,0 l0,0 zm0,0 l0,1 l0,-1 zm-77,64 l-18,15 l0,0 l1,0 l0,-1 l0,0 l1,0 l0,0 l0,-1 l0,0 l1,0 l0,0 l0,-1 l0,0 l1,0 l11,-10 l1,0 l0,-1 l0,0 l1,0 l0,0 l0,-1 l1,0 l0,0 l0,0 zm-172,156 l0,0 l0,0 l0,0 zm-132,136 l-1,0 l0,0 l0,0 l0,0 l1,0 zm-1,0 l0,0 l0,0 l0,0 zm-1,2 l0,0 l0,0 l0,0 zm0,0 l-1,0 l1,0 zm-1,0 l0,0 l0,0 zm-197,234 l-1,0 l1,0 zm-1,1 l0,0 l0,0 l-1,1 l0,0 l0,0 l0,1 l-1,0 l0,0 l0,1 l0,0 l0,0 l-5,6 l0,0 l-1,1 l0,0 l0,1 l6,-8 l2,-3 zm-8,11 l0,0 l0,0 zm0,0 l-1,0 l1,0 zm-1,0 l0,0 l0,0 zm0,0 l0,1 l0,-1 zm0,1 l0,0 l0,0 zm0,0 l0,0 l0,0 zm0,0 l-1,0 l1,0 zm-1,0 l0,1 l0,-1 zm0,1 l0,0 l0,0 zm-95,130 l0,0 l0,0 zm0,0 l0,0 l0,0 zm0,0 l0,0 l0,0 zm0,0 l0,1 l0,-1 zm0,1 l-1,0 l1,0 zm-1,0 l0,0 l0,0 zm0,0 l0,0 l0,0 zm0,0 l0,1 l0,-1 zm0,1 l0,0 l0,0 zm0,0 l0,0 l0,0 zm0,0 l-5,6 l5,-6 zm-5,6 l0,1 l0,-1 zm0,1 l0,0 l0,0 zm0,0 l-1,1 l0,0 l1,-1 zm-2,2 l0,0 l0,0 l0,0 zm0,1 l0,0 l0,0 l0,0 zm0,0 l-1,1 l0,0 l1,-1 zm-1,2 l-1,0 l0,0 l1,0 zm-1,0 l0,0 l0,0 l0,0 zm-153,243 l0,0 l0,0 l0,0 zm0,0 l0,1 l0,-1 zm0,1 l0,0 l0,0 zm-76,140 l0,1 l0,-1 zm0,1 l-1,0 l1,0 zm-1,0 l0,0 l0,0 zm0,0 l0,1 l0,-1 zm0,1 l0,0 l0,0 zm0,0 l0,1 l0,-1 zm0,1 l-10,19 l0,-1 l0,0 l9,-18 l0,0 l1,0 zm-10,19 l0,0 l0,0 zm0,0 l0,0 l0,0 zm0,0 l-1,1 l0,0 l1,-1 zm-1,2 l0,0 l0,0 zm-108,234 l0,1 l0,0 l0,-1 zm0,2 l0,-1 l0,1 zm-217,757 l0,0 l0,0 zm0,0 l0,1 l0,-1 zm0,1 l0,0 l0,0 l0,0 zm-3,19 l0,0 l0,0 l0,0 zm0,0 l0,-1 l0,1 l0,0 zm0,-1 l0,0 l0,0 zm-21,148 l0,0 l0,0 zm0,0 l0,1 l0,-1 zm0,1 l0,0 l0,0 zm0,0 l0,0 l0,0 zm0,0 l0,1 l0,-1 zm0,1 l0,0 l0,0 zm0,0 l0,1 l0,0 l0,-1 zm-2,20 l0,-1 l0,1 zm0,-1 l0,-1 l0,1 zm0,-1 l0,0 l0,0 zm-14,151 l0,0 l0,0 zm0,0 l0,0 l0,0 zm0,0 l0,1 l0,-1 zm0,1 l0,0 l0,0 zm0,0 l0,1 l0,-1 zm0,1 l0,0 l0,0 l0,0 zm0,3 l0,0 l0,0 zm0,0 l0,-1 l0,1 zm0,-1 l0,-1 l0,1 zm0,-1 l0,0 l0,0 zm-282,242 c-5,0 -10,0 -14,0 c4,0 9,0 14,0 zm-22,0 c-5,1 -9,0 -13,0 c4,0 8,1 13,0 zm-28,0 c-3,-1 -5,-1 -7,-1 l7,1 z" id="svg_22"/>
    </g>
   </g>
  </g>
 </g></g></svg>