<?xml version="1.0" encoding="UTF-8"?>
<!DOCTYPE svg PUBLIC "-//W3C//DTD SVG 1.1//EN" "http://www.w3.org/Graphics/SVG/1.1/DTD/svg11.dtd">
<!-- Creator: CorelDRAW X6 -->
<svg xmlns="http://www.w3.org/2000/svg" xml:space="preserve" width="174.599mm" height="57.413mm" version="1.1" style="shape-rendering:geometricPrecision; text-rendering:geometricPrecision; image-rendering:optimizeQuality; fill-rule:evenodd; clip-rule:evenodd"
viewBox="0 0 17460 5741"
 xmlns:xlink="http://www.w3.org/1999/xlink">
 <defs>
  <style type="text/css">
   <![CDATA[
    .fil0 {fill:#FEFEFE}
   ]]>
  </style>
 </defs>
 <g id="Слой_x0020_1">
  <metadata id="CorelCorpID_0Corel-Layer"/>
  <g id="_169028176">
   <path class="fil0" d="M61 4216c-16,26 -57,249 -61,294 275,0 446,26 622,-130 128,-114 217,-257 271,-481 49,-201 87,-423 127,-626 41,-210 90,-418 135,-624 90,-412 181,-823 272,-1232 45,-203 89,-411 146,-606 45,-152 146,-458 253,-510 189,65 341,1229 381,1509l354 2479c43,303 71,912 425,990 299,65 381,-260 477,-458 47,-97 119,-227 152,-320l12421 0 55 -295c-110,-10 -699,-2 -860,-2l-11237 0c-124,0 -310,-11 -427,3 -141,16 -180,89 -233,197 -40,83 -253,551 -284,583 -117,-42 -158,-477 -174,-585 -31,-220 -63,-441 -95,-663 -64,-441 -124,-891 -191,-1332 -78,-524 -183,-1464 -340,-1947 -61,-189 -153,-384 -323,-442 -395,-135 -593,514 -669,819 -102,408 -189,828 -281,1244 -93,416 -189,835 -272,1253 -53,271 -88,696 -302,840 -98,66 -212,34 -342,42z"/>
   <path class="fil0" d="M4752 2521c-196,11 -332,93 -453,181 -18,14 -61,56 -80,78 -23,28 -47,58 -70,94 -213,332 -231,930 362,968l-21 134 246 0 23 -129c59,-28 231,-2 457,-180 122,-96 205,-242 246,-397 115,-430 -54,-713 -463,-749l22 -129 -245 -1 -24 130zm-202 1130l167 -941c-459,36 -616,906 -167,941zm246 -2c98,7 210,-75 271,-138 177,-181 294,-767 -105,-802l-166 940z"/>
   <path class="fil0" d="M14274 3260l-148 0 73 -425 -254 -1c-11,20 -186,994 -194,1082l256 -1 81 -452 144 -1c-3,160 27,301 114,380 91,83 227,123 388,82 542,-136 686,-1114 86,-1112 -279,1 -483,222 -546,448zm482 -245c-141,25 -222,187 -254,335 -36,165 -27,414 175,388 279,-36 394,-779 79,-723z"/>
   <path class="fil0" d="M13134 2819c-294,45 -484,268 -538,561 -66,359 146,612 510,552 292,-48 479,-274 532,-564 67,-360 -141,-604 -504,-549zm16 197c-159,27 -247,181 -281,344 -36,174 2,411 220,378 316,-48 424,-784 61,-722z"/>
   <path class="fil0" d="M5561 3914l307 1 140 -202c127,-183 272,-398 386,-591l22 -29c-9,63 -30,133 -44,198 -16,70 -29,132 -42,204 -14,71 -25,139 -38,209 -11,65 -30,146 -36,211l247 0 188 -1055 -317 -1 -272 395c-45,66 -85,126 -130,198l-124 198c-1,1 -3,3 -4,4 -1,1 -3,3 -4,4l83 -393c22,-123 60,-285 70,-407l-242 1c-21,44 -82,442 -98,528 -29,165 -74,361 -92,527z"/>
   <path class="fil0" d="M9432 3875l-4 -184c-44,1 -592,189 -560,-223 38,-14 597,-6 686,-5 74,-183 74,-545 -204,-616 -287,-72 -506,109 -609,269 -118,184 -193,513 -25,693 130,140 343,146 537,112 68,-11 121,-32 179,-46zm-525 -602l443 1c28,-159 -40,-284 -211,-252 -104,19 -218,140 -232,251z"/>
   <path class="fil0" d="M12406 3875l-2 -217c-81,13 -115,51 -285,51 -109,1 -203,-22 -273,-75 -266,-201 -140,-754 167,-932 122,-71 280,-96 427,-65 56,12 89,30 138,43 18,-63 82,-164 90,-222 -154,-51 -233,-74 -417,-58 -140,12 -268,60 -368,117 -187,107 -341,296 -417,554 -128,439 22,848 516,866 182,6 270,-18 424,-62z"/>
   <path class="fil0" d="M9551 3916l277 -1c21,-10 124,-157 143,-184 24,-33 46,-61 70,-95 16,-22 55,-82 74,-97l149 376 294 0 -248 -547c47,-71 414,-474 428,-512 -74,2 -153,1 -227,0 -70,-1 -44,-8 -126,98l-195 263c-12,-16 -117,-289 -153,-359l-285 -1c6,38 113,245 138,298 121,259 127,194 59,280 -33,42 -65,76 -100,119 -55,66 -282,330 -298,362z"/>
   <path class="fil0" d="M15436 2917l24 163c35,-12 62,-28 98,-41 37,-14 72,-23 114,-29 256,-37 282,167 108,237 -79,32 -173,23 -263,26l-31 173c98,1 206,-9 286,23 138,56 88,283 -200,269 -112,-5 -161,-36 -246,-69 -17,22 -80,145 -88,171 138,126 515,128 714,10 216,-127 274,-446 -44,-503 31,-21 95,-35 138,-66 44,-31 71,-56 98,-107 119,-221 -77,-392 -397,-356 -133,15 -208,50 -311,99z"/>
   <path class="fil0" d="M6900 2937c3,35 13,132 28,156 8,5 -1,5 17,-2l70 -32c32,-12 75,-24 113,-30 267,-40 290,164 118,233 -81,33 -171,22 -264,24l-29 169c97,0 207,-8 286,25 89,37 92,132 30,195 -50,52 -141,74 -239,67 -44,-2 -87,-11 -125,-22 -47,-14 -75,-34 -117,-48 -16,54 -74,125 -82,177 45,15 58,36 156,64 61,16 128,24 196,24 225,0 523,-92 537,-350 8,-146 -97,-202 -222,-227 37,-24 165,-39 235,-167 62,-115 28,-235 -55,-293 -85,-58 -217,-73 -341,-60 -167,17 -200,56 -312,97z"/>
   <path class="fil0" d="M12166 4831c-162,33 -296,89 -350,279 -37,129 -24,271 101,334 45,23 92,22 129,37l-8 61 122 1 15 -66c191,-21 306,-115 351,-279 58,-210 -34,-350 -233,-364l7 -65c-138,0 -120,-15 -134,62zm-102 551l84 -457c-233,31 -303,428 -84,457zm128 -1c234,-16 301,-447 84,-454l-84 454z"/>
   <polygon class="fil0" points="7757,3063 8063,3065 7913,3915 8173,3915 8324,3066 8629,3065 8668,2857 7794,2857 "/>
   <path class="fil0" d="M16316 4633l1144 -235c-165,-61 -355,-111 -526,-162 -87,-26 -173,-52 -263,-79 -62,-19 -210,-71 -262,-76l-93 552z"/>
   <path class="fil0" d="M10442 5221c-61,38 -82,17 -145,121 -15,25 -87,154 -92,171l125 0c73,-85 69,-214 215,-215l-34 214 123 1 40 -213c149,-4 94,128 141,213l126 0c1,-18 -25,-150 -32,-176 -8,-28 -21,-58 -35,-75 -18,-23 -40,-22 -66,-41 27,-28 215,-213 219,-222 -150,-11 -141,-7 -200,66 -21,26 -41,51 -62,75 -37,42 -40,61 -73,71l35 -211 -124 -2c-18,60 -19,166 -44,211 -21,-5 -10,9 -37,-47l-80 -164 -141 0c11,45 117,168 141,223z"/>
   <path class="fil0" d="M12580 5513c31,1 62,0 93,0 78,1 58,9 161,-145 28,-43 54,-77 84,-120 26,-38 52,-96 83,-124 -11,92 -74,304 -72,388l122 1 92 -514 -160 -1 -262 381c9,-93 75,-297 68,-381l-120 0c-16,69 -93,469 -89,515z"/>
   <path class="fil0" d="M14524 5493l-1 -90c-15,2 -316,85 -281,-110l346 -1c28,-141 24,-272 -112,-301 -392,-82 -588,696 48,502zm-263 -293l221 0c12,-80 -25,-136 -106,-122 -54,9 -110,69 -115,122z"/>
   <path class="fil0" d="M9055 5488l-1 -92c-49,-4 -176,55 -280,-17 -129,-90 -84,-349 76,-445 94,-56 182,-42 288,-11l45 -107c-538,-175 -783,472 -519,653 84,57 307,79 391,19z"/>
   <path class="fil0" d="M10984 5633l8 101c56,31 179,-76 211,-109 85,-89 361,-591 366,-627l-134 0c-31,34 -147,327 -178,368l-55 -368 -141 0c-4,40 64,314 78,375 21,90 43,109 -11,171 -34,40 -76,71 -144,89z"/>
   <path class="fil0" d="M9685 5633l8 101c11,7 1,5 18,6l49 -12c21,-9 34,-16 54,-28 154,-98 251,-324 342,-485 20,-35 108,-191 114,-217l-128 0c-37,15 -145,317 -185,369l-55 -369 -141 0c-3,48 64,307 79,375 20,89 43,110 -10,172 -31,35 -83,74 -145,88z"/>
   <path class="fil0" d="M15138 5639l7 100c70,17 168,-72 208,-115 57,-60 92,-121 138,-197 30,-51 227,-400 231,-429l-136 0 -175 368 -57 -368 -142 0c0,66 61,292 80,375 18,83 59,144 -74,226 -36,22 -59,24 -80,40z"/>
   <path class="fil0" d="M9114 5523c113,-1 180,-56 215,-136 41,-92 43,-186 69,-287l134 0 -70 411 130 2c16,-53 93,-477 90,-515l-390 0c-29,125 -37,352 -120,402 -28,17 -47,9 -54,34 -3,14 -1,67 -4,89z"/>
   <path class="fil0" d="M14805 5249c-19,38 -186,209 -220,262l143 2c32,-37 116,-165 140,-180 29,59 46,125 78,179l144 1c-10,-67 -108,-197 -121,-271 35,-42 72,-80 106,-122 23,-30 92,-93 101,-123 -168,1 -122,-21 -203,83l-59 79c-12,12 5,0 -14,11 -12,-42 -54,-138 -75,-172l-141 0c5,43 100,194 121,251z"/>
   <path class="fil0" d="M13250 5037l10 77c64,-21 160,-67 212,-2 20,96 -104,93 -182,93l-14 82c85,8 114,-14 177,35 10,71 -32,97 -96,104 -79,9 -107,-19 -162,-31l-42 79c80,81 430,71 446,-116 8,-84 -52,-97 -82,-111l-19 -12c111,-25 179,-160 67,-222 -84,-48 -243,-22 -315,24z"/>
   <path class="fil0" d="M10785 3279l0 138c164,6 365,2 537,2l1 -191 -538 1 0 50z"/>
   <path class="fil0" d="M13681 5101l148 -1c4,67 -70,351 -66,412l100 1c28,0 27,3 34,-25 21,-86 43,-298 70,-387l149 -1c13,-26 19,-71 18,-102l-401 0c-34,0 -43,-17 -52,103z"/>
   <polygon class="fil0" points="15759,5293 15860,5292 15967,4799 15829,4799 "/>
   <path class="fil0" d="M15771 5363c-105,31 -90,196 31,156 92,-30 88,-192 -31,-156z"/>
  </g>
 </g>
</svg>
